<?xml version="1.0" standalone="no"?>
<!DOCTYPE svg PUBLIC "-//W3C//DTD SVG 20010904//EN"
 "http://www.w3.org/TR/2001/REC-SVG-20010904/DTD/svg10.dtd">
<svg version="1.0" xmlns="http://www.w3.org/2000/svg"
 width="261.000000pt" height="261.000000pt" viewBox="0 0 261.000000 261.000000"
 preserveAspectRatio="xMidYMid meet">
<metadata>
Created by potrace 1.14, written by Peter Selinger 2001-2017
</metadata>
<g transform="translate(0.000000,261.000000) scale(0.100000,-0.100000)"
fill="#000000" stroke="none">
<path d="M1135 2600 c-22 -5 -53 -10 -70 -13 -165 -28 -353 -106 -504 -211
-287 -198 -486 -518 -546 -876 -14 -84 -14 -321 0 -400 33 -189 110 -379 218
-540 66 -97 241 -272 336 -334 141 -94 307 -165 454 -196 29 -5 63 -13 77 -16
56 -13 308 -13 390 0 316 50 591 202 796 441 155 181 252 389 300 645 13 73
12 334 -2 410 -8 41 -17 86 -19 100 -10 53 -65 202 -105 282 -183 362 -536
626 -935 699 -80 14 -330 20 -390 9z"/>
</g>
</svg>
